<svg width="38" height="38" viewBox="0 0 38 38" fill="none" xmlns="http://www.w3.org/2000/svg">
<g filter="url(#filter0_i_109_1047)">
<path d="M33.1085 20.7566C33.4724 20.8798 33.7351 21.0799 33.8968 21.3569C34.0585 21.6339 34.1545 21.9366 34.1849 22.265C34.2152 22.5933 34.2 22.9114 34.1394 23.2192C34.0787 23.5271 34.008 23.7733 33.9271 23.958C33.8463 24.1427 33.7149 24.3479 33.533 24.5736C33.3511 24.7994 33.1338 24.9892 32.8811 25.1431C32.6285 25.297 32.3455 25.3945 32.0322 25.4356C31.7189 25.4766 31.3904 25.4048 31.0468 25.2201C30.8447 25.1175 30.4505 24.9071 29.8644 24.589C29.2782 24.271 28.5758 23.8913 27.7572 23.4501C26.9386 23.0089 26.0593 22.542 25.1194 22.0495C24.1795 21.557 23.27 21.0696 22.3907 20.5873C21.5114 20.1051 20.6979 19.6639 19.95 19.2637C19.2021 18.8635 18.616 18.5506 18.1915 18.3248L16.9484 21.0645C16.8474 21.3312 16.6856 21.5365 16.4633 21.6801C16.241 21.8238 15.9984 21.9161 15.7357 21.9572L15.3415 22.8498C15.5436 22.9319 15.6801 23.0704 15.7508 23.2654C15.8216 23.4604 15.8165 23.6604 15.7357 23.8657C15.6346 24.0503 15.488 24.1837 15.296 24.2658C15.104 24.3479 14.917 24.3377 14.7351 24.235L7.88299 21.0952C7.68086 20.9926 7.54443 20.8439 7.47368 20.6489C7.40294 20.454 7.40799 20.2641 7.48884 20.0794C7.58991 19.8742 7.73645 19.7357 7.92847 19.6639C8.12049 19.592 8.30746 19.6074 8.48937 19.71L8.88352 18.8174C8.72182 18.5916 8.62581 18.3454 8.59549 18.0786C8.56517 17.8118 8.61065 17.545 8.73193 17.2782L12.4612 8.93625C12.5622 8.66947 12.7239 8.46425 12.9463 8.3206C13.1686 8.17695 13.4112 8.0846 13.6739 8.04356L14.0681 7.18165C13.866 7.07905 13.7295 6.93027 13.6588 6.73531C13.588 6.54036 13.6032 6.35053 13.7043 6.16584C13.7851 5.96062 13.9216 5.8221 14.1136 5.75028C14.3056 5.67845 14.4926 5.68358 14.6745 5.76567L21.5569 8.93625C21.7388 9.01833 21.8702 9.15685 21.9511 9.35181C22.0319 9.54676 22.0218 9.73658 21.9208 9.92128C21.8197 10.1265 21.6782 10.265 21.4963 10.3368C21.3144 10.4087 21.1224 10.4035 20.9202 10.3214L20.5261 11.1834C20.6878 11.4091 20.7838 11.6553 20.8141 11.9221C20.8444 12.1889 20.7989 12.4557 20.6777 12.7225L19.4649 15.4621C19.9096 15.6468 20.5362 15.893 21.3447 16.2009C22.1532 16.5087 23.0325 16.8473 23.9825 17.2167C24.9325 17.5861 25.9077 17.9657 26.9083 18.3556C27.9088 18.7455 28.8386 19.1098 29.6976 19.4484C30.5567 19.787 31.2944 20.0743 31.9109 20.3103C32.5274 20.5463 32.9266 20.6951 33.1085 20.7566ZM15.7053 28.4522C16.0894 28.4522 16.4128 28.5856 16.6755 28.8524C16.9383 29.1192 17.0697 29.4475 17.0697 29.8374V30.9148C17.0697 31.3047 16.9383 31.6331 16.6755 31.8998C16.4128 32.1666 16.0894 32.3 15.7053 32.3H7.09469C6.71065 32.3 6.38219 32.1666 6.10932 31.8998C5.83645 31.6331 5.70001 31.3047 5.70001 30.9148V29.8374C5.70001 29.4475 5.83645 29.1192 6.10932 28.8524C6.38219 28.5856 6.71065 28.4522 7.09469 28.4522H15.7053Z" fill="#2D74FF"/>
</g>
<defs>
<filter id="filter0_i_109_1047" x="5.70001" y="5.7" width="28.5" height="26.6" filterUnits="userSpaceOnUse" color-interpolation-filters="sRGB">
<feFlood flood-opacity="0" result="BackgroundImageFix"/>
<feBlend mode="normal" in="SourceGraphic" in2="BackgroundImageFix" result="shape"/>
<feColorMatrix in="SourceAlpha" type="matrix" values="0 0 0 0 0 0 0 0 0 0 0 0 0 0 0 0 0 0 127 0" result="hardAlpha"/>
<feOffset/>
<feGaussianBlur stdDeviation="1.5"/>
<feComposite in2="hardAlpha" operator="arithmetic" k2="-1" k3="1"/>
<feColorMatrix type="matrix" values="0 0 0 0 0.599214 0 0 0 0 0.957415 0 0 0 0 0.635034 0 0 0 0.3 0"/>
<feBlend mode="normal" in2="shape" result="effect1_innerShadow_109_1047"/>
</filter>
</defs>
</svg>
