<svg width="48" height="48" viewBox="0 0 48 48" fill="none" xmlns="http://www.w3.org/2000/svg">
<g clip-path="url(#clip0_109_953)">
<path fill-rule="evenodd" clip-rule="evenodd" d="M18.192 47.2814C31.052 50.4874 44.0749 42.6625 47.2819 29.8055C50.4872 16.9475 42.6616 3.92392 29.8033 0.71826C16.9477 -2.4874 3.92369 5.33858 0.719021 18.1969C-2.48864 31.0532 5.33735 44.0758 18.192 47.2814ZM27.8148 16.6639C30.4211 17.5306 32.3274 18.8294 31.953 21.2465C31.682 23.0153 30.6656 23.8719 29.3172 24.1721C31.1691 25.1032 32.1116 26.5307 31.2136 29.0053C30.1 32.0784 27.4529 32.3377 23.9327 31.695L23.0783 35L21.0141 34.5033L21.857 31.2427C21.3219 31.1143 20.7753 30.9779 20.2115 30.8305L19.3657 34.1065L17.3039 33.6098L18.1575 30.2985C17.9801 30.2545 17.8016 30.2096 17.6218 30.1644C17.3134 30.0868 17.0014 30.0084 16.686 29.932L14 29.2855L15.0242 27.0049C15.0242 27.0049 16.5459 27.3951 16.5253 27.3664C17.1095 27.5061 17.369 27.1381 17.4714 26.8929L18.8212 21.6688C18.8817 21.6829 18.9409 21.6972 18.9975 21.7109C19.0115 21.7143 19.0254 21.7177 19.0391 21.721C18.9565 21.6887 18.8821 21.6688 18.8246 21.6544L19.7874 17.9249C19.8125 17.5016 19.6617 16.9676 18.8256 16.766C18.858 16.7448 17.3266 16.4061 17.3266 16.4061L17.8759 14.2778L20.7223 14.964L20.7202 14.974C21.1484 15.077 21.5892 15.1743 22.0384 15.2732L22.8847 12L24.9472 12.4967L24.1187 15.7053C24.6729 15.8272 25.2297 15.9503 25.7729 16.0809L26.5962 12.8935L28.66 13.3902L27.8148 16.6639ZM21.2856 28.5333C22.9703 28.963 26.6512 29.9019 27.2371 27.6312C27.8365 25.3092 24.2644 24.5359 22.5227 24.1589C22.3285 24.1169 22.157 24.0798 22.0167 24.046L20.8832 28.4324C20.9987 28.4601 21.1341 28.4946 21.2856 28.5333ZM22.8739 22.1232C24.2782 22.4851 27.3415 23.2745 27.8746 21.2109C28.4197 19.1006 25.4429 18.4642 23.9888 18.1534C23.825 18.1183 23.6806 18.0875 23.5627 18.0591L22.5353 22.0376C22.6324 22.0609 22.7463 22.0903 22.8739 22.1232Z" fill="#FF852D"/>
</g>
<defs>
<clipPath id="clip0_109_953">
<rect width="48" height="48" fill="white"/>
</clipPath>
</defs>
</svg>
