<svg width="38" height="38" viewBox="0 0 38 38" fill="none" xmlns="http://www.w3.org/2000/svg">
<g filter="url(#filter0_i_109_1025)">
<path fill-rule="evenodd" clip-rule="evenodd" d="M11.0122 7.16532C13.3132 5.62512 16.0193 4.80185 18.7883 4.79961C22.5004 4.79961 26.0608 6.27269 28.6877 8.89543C31.3147 11.5182 32.7936 15.0762 32.7996 18.7883C32.8018 21.5572 31.9829 24.2647 30.4464 26.5682C28.9099 28.8717 26.7249 30.6679 24.1676 31.7296C21.6103 32.7913 18.7956 33.0708 16.0794 32.5328C13.3632 31.9948 10.8676 30.6635 8.90807 28.7071C6.94855 26.7507 5.61317 24.2573 5.07078 21.542C4.5284 18.8267 4.80337 16.0115 5.86093 13.4525C6.91849 10.8935 8.71114 8.70552 11.0122 7.16532ZM24.6499 20.0661C24.2795 19.3431 23.729 18.7277 23.0516 18.2794C22.2484 17.7631 21.3408 17.4309 20.3941 17.3069V13.3376C21.9546 13.7334 21.9546 14.7398 21.9546 15.1696H25.1324C25.1643 14.3578 24.9864 13.5516 24.616 12.8286C24.2456 12.1056 23.6951 11.4902 23.0176 11.0419C22.2145 10.5256 21.3069 10.1935 20.3601 10.0694V8.48621H17.2164V10.0694C16.2696 10.1935 15.362 10.5256 14.5588 11.0419C13.8814 11.4902 13.3309 12.1056 12.9605 12.8286C12.5901 13.5516 12.4122 14.3578 12.4441 15.1696C12.4125 15.9828 12.5903 16.7906 12.9606 17.5154C13.3309 18.2401 13.8813 18.8576 14.5588 19.3085C15.362 19.8248 16.2696 20.157 17.2164 20.281V24.2503C15.6558 23.8432 15.6558 22.8481 15.6558 22.407H12.4441C12.41 23.2182 12.5844 24.0246 12.9507 24.7492C13.3169 25.4738 13.8628 26.0924 14.5362 26.546C15.3417 27.0577 16.2482 27.3895 17.1937 27.5185V29.0904H20.3941V27.5185C21.3396 27.3895 22.2461 27.0577 23.0516 26.546C23.7292 26.0951 24.2795 25.4776 24.6498 24.7529C25.0201 24.0281 25.198 23.2203 25.1663 22.407C25.1982 21.5953 25.0203 20.7891 24.6499 20.0661ZM17.1938 17.0129C15.6332 16.6058 15.6332 15.6106 15.6332 15.1696C15.6332 14.7398 15.6332 13.7334 17.1938 13.3376V17.0129ZM21.9207 22.407C21.9207 22.8481 21.9207 23.8432 20.3602 24.2503V20.5637C21.9229 20.9627 21.9214 21.9266 21.9208 22.38C21.9208 22.3892 21.9207 22.3983 21.9207 22.407Z" fill="#2D74FF"/>
</g>
<defs>
<filter id="filter0_i_109_1025" x="4.79956" y="4.79961" width="28" height="28" filterUnits="userSpaceOnUse" color-interpolation-filters="sRGB">
<feFlood flood-opacity="0" result="BackgroundImageFix"/>
<feBlend mode="normal" in="SourceGraphic" in2="BackgroundImageFix" result="shape"/>
<feColorMatrix in="SourceAlpha" type="matrix" values="0 0 0 0 0 0 0 0 0 0 0 0 0 0 0 0 0 0 127 0" result="hardAlpha"/>
<feOffset/>
<feGaussianBlur stdDeviation="1.38178"/>
<feComposite in2="hardAlpha" operator="arithmetic" k2="-1" k3="1"/>
<feColorMatrix type="matrix" values="0 0 0 0 0.738577 0 0 0 0 0.826963 0 0 0 0 1 0 0 0 0.5 0"/>
<feBlend mode="normal" in2="shape" result="effect1_innerShadow_109_1025"/>
</filter>
</defs>
</svg>
