<svg width="24" height="24" viewBox="0 0 24 24" fill="none" xmlns="http://www.w3.org/2000/svg">
<path fill-rule="evenodd" clip-rule="evenodd" d="M2 0C0.895431 0 0 0.89543 0 2V22C0 23.1046 0.89543 24 2 24H22C23.1046 24 24 23.1046 24 22V2C24 0.895431 23.1046 0 22 0H2ZM16.1769 5.13001C16.1769 5.13001 19.7712 10.6818 19.7712 18H12.9072H8.61721H4.32718C4.32718 18 5 15.2885 6.5 12.5C7.67241 10.3205 10.1423 7.70401 10.1423 7.70401C10.1423 7.70401 11.4803 9.85339 12.2948 13.1327C12.5387 12.7592 12.7761 12.3796 13 12C14.7696 9.00001 16.1769 5.13001 16.1769 5.13001Z" fill="black"/>
</svg>
